<svg xmlns="http://www.w3.org/2000/svg" width="350" height="385" viewBox="0 0 350 385"><rect width="100%" height="100%" fill="#f4d0a2"/><line x1="35" y1="35" x2="315" y2="35" stroke="black" stroke-width="1"/><line x1="35" y1="70" x2="315" y2="70" stroke="black" stroke-width="1"/><line x1="35" y1="105" x2="315" y2="105" stroke="black" stroke-width="1"/><line x1="35" y1="140" x2="315" y2="140" stroke="black" stroke-width="1"/><line x1="35" y1="175" x2="315" y2="175" stroke="black" stroke-width="1"/><line x1="35" y1="210" x2="315" y2="210" stroke="black" stroke-width="1"/><line x1="35" y1="245" x2="315" y2="245" stroke="black" stroke-width="1"/><line x1="35" y1="280" x2="315" y2="280" stroke="black" stroke-width="1"/><line x1="35" y1="315" x2="315" y2="315" stroke="black" stroke-width="1"/><line x1="35" y1="350" x2="315" y2="350" stroke="black" stroke-width="1"/><line x1="35" y1="35" x2="35" y2="175" stroke="black" stroke-width="1"/><line x1="35" y1="210" x2="35" y2="350" stroke="black" stroke-width="1"/><line x1="35" y1="175" x2="35" y2="210" stroke="black" stroke-width="1"/><line x1="70" y1="35" x2="70" y2="175" stroke="black" stroke-width="1"/><line x1="70" y1="210" x2="70" y2="350" stroke="black" stroke-width="1"/><line x1="105" y1="35" x2="105" y2="175" stroke="black" stroke-width="1"/><line x1="105" y1="210" x2="105" y2="350" stroke="black" stroke-width="1"/><line x1="140" y1="35" x2="140" y2="175" stroke="black" stroke-width="1"/><line x1="140" y1="210" x2="140" y2="350" stroke="black" stroke-width="1"/><line x1="175" y1="35" x2="175" y2="175" stroke="black" stroke-width="1"/><line x1="175" y1="210" x2="175" y2="350" stroke="black" stroke-width="1"/><line x1="210" y1="35" x2="210" y2="175" stroke="black" stroke-width="1"/><line x1="210" y1="210" x2="210" y2="350" stroke="black" stroke-width="1"/><line x1="245" y1="35" x2="245" y2="175" stroke="black" stroke-width="1"/><line x1="245" y1="210" x2="245" y2="350" stroke="black" stroke-width="1"/><line x1="280" y1="35" x2="280" y2="175" stroke="black" stroke-width="1"/><line x1="280" y1="210" x2="280" y2="350" stroke="black" stroke-width="1"/><line x1="315" y1="35" x2="315" y2="175" stroke="black" stroke-width="1"/><line x1="315" y1="210" x2="315" y2="350" stroke="black" stroke-width="1"/><line x1="315" y1="175" x2="315" y2="210" stroke="black" stroke-width="1"/><line x1="140" y1="35" x2="210" y2="105" stroke="black" stroke-width="1"/><line x1="210" y1="35" x2="140" y2="105" stroke="black" stroke-width="1"/><line x1="140" y1="280" x2="210" y2="350" stroke="black" stroke-width="1"/><line x1="210" y1="280" x2="140" y2="350" stroke="black" stroke-width="1"/><path d="M 66 93 L 66 101 L 58 101" stroke="black" fill="none" stroke-width="1"/><path d="M 66 117 L 66 109 L 58 109" stroke="black" fill="none" stroke-width="1"/><path d="M 74 93 L 74 101 L 82 101" stroke="black" fill="none" stroke-width="1"/><path d="M 74 117 L 74 109 L 82 109" stroke="black" fill="none" stroke-width="1"/><path d="M 66 268 L 66 276 L 58 276" stroke="black" fill="none" stroke-width="1"/><path d="M 66 292 L 66 284 L 58 284" stroke="black" fill="none" stroke-width="1"/><path d="M 74 268 L 74 276 L 82 276" stroke="black" fill="none" stroke-width="1"/><path d="M 74 292 L 74 284 L 82 284" stroke="black" fill="none" stroke-width="1"/><path d="M 276 93 L 276 101 L 268 101" stroke="black" fill="none" stroke-width="1"/><path d="M 276 117 L 276 109 L 268 109" stroke="black" fill="none" stroke-width="1"/><path d="M 284 93 L 284 101 L 292 101" stroke="black" fill="none" stroke-width="1"/><path d="M 284 117 L 284 109 L 292 109" stroke="black" fill="none" stroke-width="1"/><path d="M 276 268 L 276 276 L 268 276" stroke="black" fill="none" stroke-width="1"/><path d="M 276 292 L 276 284 L 268 284" stroke="black" fill="none" stroke-width="1"/><path d="M 284 268 L 284 276 L 292 276" stroke="black" fill="none" stroke-width="1"/><path d="M 284 292 L 284 284 L 292 284" stroke="black" fill="none" stroke-width="1"/><path d="M 39 128 L 39 136 L 47 136" stroke="black" fill="none" stroke-width="1"/><path d="M 39 152 L 39 144 L 47 144" stroke="black" fill="none" stroke-width="1"/><path d="M 39 233 L 39 241 L 47 241" stroke="black" fill="none" stroke-width="1"/><path d="M 39 257 L 39 249 L 47 249" stroke="black" fill="none" stroke-width="1"/><path d="M 101 128 L 101 136 L 93 136" stroke="black" fill="none" stroke-width="1"/><path d="M 101 152 L 101 144 L 93 144" stroke="black" fill="none" stroke-width="1"/><path d="M 109 128 L 109 136 L 117 136" stroke="black" fill="none" stroke-width="1"/><path d="M 109 152 L 109 144 L 117 144" stroke="black" fill="none" stroke-width="1"/><path d="M 101 233 L 101 241 L 93 241" stroke="black" fill="none" stroke-width="1"/><path d="M 101 257 L 101 249 L 93 249" stroke="black" fill="none" stroke-width="1"/><path d="M 109 233 L 109 241 L 117 241" stroke="black" fill="none" stroke-width="1"/><path d="M 109 257 L 109 249 L 117 249" stroke="black" fill="none" stroke-width="1"/><path d="M 171 128 L 171 136 L 163 136" stroke="black" fill="none" stroke-width="1"/><path d="M 171 152 L 171 144 L 163 144" stroke="black" fill="none" stroke-width="1"/><path d="M 179 128 L 179 136 L 187 136" stroke="black" fill="none" stroke-width="1"/><path d="M 179 152 L 179 144 L 187 144" stroke="black" fill="none" stroke-width="1"/><path d="M 171 233 L 171 241 L 163 241" stroke="black" fill="none" stroke-width="1"/><path d="M 171 257 L 171 249 L 163 249" stroke="black" fill="none" stroke-width="1"/><path d="M 179 233 L 179 241 L 187 241" stroke="black" fill="none" stroke-width="1"/><path d="M 179 257 L 179 249 L 187 249" stroke="black" fill="none" stroke-width="1"/><path d="M 241 128 L 241 136 L 233 136" stroke="black" fill="none" stroke-width="1"/><path d="M 241 152 L 241 144 L 233 144" stroke="black" fill="none" stroke-width="1"/><path d="M 249 128 L 249 136 L 257 136" stroke="black" fill="none" stroke-width="1"/><path d="M 249 152 L 249 144 L 257 144" stroke="black" fill="none" stroke-width="1"/><path d="M 241 233 L 241 241 L 233 241" stroke="black" fill="none" stroke-width="1"/><path d="M 241 257 L 241 249 L 233 249" stroke="black" fill="none" stroke-width="1"/><path d="M 249 233 L 249 241 L 257 241" stroke="black" fill="none" stroke-width="1"/><path d="M 249 257 L 249 249 L 257 249" stroke="black" fill="none" stroke-width="1"/><path d="M 311 128 L 311 136 L 303 136" stroke="black" fill="none" stroke-width="1"/><path d="M 311 152 L 311 144 L 303 144" stroke="black" fill="none" stroke-width="1"/><path d="M 311 233 L 311 241 L 303 241" stroke="black" fill="none" stroke-width="1"/><path d="M 311 257 L 311 249 L 303 249" stroke="black" fill="none" stroke-width="1"/><text x="105" y="201.25" font-size="22" font-family="serif" font-weight="bold" text-anchor="middle">楚  河</text><text x="245" y="201.25" font-size="22" font-family="serif" font-weight="bold" text-anchor="middle">漢  界</text></svg>