<svg xmlns="http://www.w3.org/2000/svg" xmlns:xlink="http://www.w3.org/1999/xlink" version="1.1" width="80.26864681396485" height="55.72094783935547" viewBox="0.00002498550415030998 0.00002498550415030998 80.26864681396485 55.72094783935547"><g><g data-paper-data="{&quot;isPaintingLayer&quot;:true}" fill-rule="none" stroke-linecap="butt" stroke-linejoin="miter" stroke-miterlimit="10" stroke-dasharray="" stroke-dashoffset="0" font-family="none" font-weight="none" font-size="none" text-anchor="none" style="mix-blend-mode: normal"><path d="M 78.906 27.8605 C 78.906 42.4948 61.5474 54.3583 40.1344 54.3583 C 18.7213 54.3583 1.3627 42.4948 1.3627 27.8605 C 1.3627 13.2261 18.7213 1.3627 40.1344 1.3627 C 61.5474 1.3627 78.906 13.2261 78.906 27.8605 Z " data-paper-data="{&quot;origPos&quot;:null}" id="path4727-5" fill="#4e9a06" fill-rule="evenodd" stroke="#231f20" stroke-width="2.72535"/><path d="M 47.6904 2.8939 C 48.9529 3.2282 50.2044 3.5973 51.4531 3.9846 C 52.8226 4.384 54.1845 4.8371 55.4886 5.4297 C 57.1627 6.1129 58.7664 6.9885 60.3692 7.8291 C 62.0291 8.757 63.678 9.7214 65.2499 10.8012 C 66.738 11.9182 68.2044 13.0558 69.558 14.3458 C 70.5531 15.1965 71.4193 16.1955 72.2847 17.1815 C 73.2749 18.1764 74.101 19.3092 74.9568 20.4262 C 75.597 21.3176 76.5227 22.0391 76.92 23.0983 C 76.4425 23.4401 76.3491 22.5532 76.1292 22.2803 C 74.9474 21.0751 73.918 19.7141 72.7755 18.463 C 71.8441 17.3858 70.8286 16.3544 69.7489 15.4365 C 67.708 13.8 65.7417 12.0596 63.5322 10.6648 C 62.7332 10.1219 61.903 9.6669 61.0509 9.2197 C 57.9246 7.8291 54.7719 6.572 51.5622 5.4024 C 49.8613 4.9388 48.1226 4.5068 46.4088 4.0936 C 44.2292 3.613 42.0366 3.2127 39.8104 3.0575 C 38.3095 2.944 36.7939 3.0676 35.3387 3.4665 C 32.6115 4.1366 29.8697 4.7353 27.2133 5.6751 C 26.3064 5.9134 25.511 6.4593 24.6775 6.8748 C 22.6334 7.9714 20.5929 9.1228 18.5971 10.3104 C 17.492 10.9346 16.4903 11.7302 15.4342 12.4372 C 13.9565 13.3973 12.6002 14.5479 11.2897 15.7364 C 9.5909 17.1677 8.2429 18.9613 6.7907 20.6444 C 5.6813 22.0133 4.5384 23.3591 3.437 24.7343 C 3.4635 24.5867 3.4886 24.4449 3.5188 24.2981 C 4.549 22.7211 5.659 21.1962 6.818 19.7173 C 7.5248 18.7777 8.2925 17.9096 9.1356 17.0997 C 11.0866 15.2204 13.0765 13.3766 15.216 11.7282 C 17.0608 10.3718 19.0087 9.1488 20.8602 7.8019 C 22.2229 6.9366 23.5896 6.0398 25.032 5.3206 C 26.5946 4.6555 28.1549 4.041 29.7491 3.4665 C 33.119 2.7814 36.6875 2.4031 40.383 2.4031 C 42.8864 2.4031 45.3254 2.572 47.6904 2.8939 Z M 38.1199 5.6476 C 38.3708 5.6339 38.6301 5.6256 38.8834 5.6476 C 40.1306 5.7362 41.4055 5.8391 42.6462 6.0021 C 44.0627 6.2095 45.4618 6.4668 46.8725 6.711 C 49.755 7.2147 52.5455 8.0503 55.3251 8.9741 C 57.9071 9.8055 60.4137 10.9278 62.8233 12.1916 C 64.1715 12.8489 65.3766 13.7188 66.6679 14.482 C 67.7916 15.3093 68.9429 16.1473 69.9944 17.0723 C 71.1214 18.0488 72.1638 19.1178 73.2391 20.1534 C 73.9277 20.8662 74.7001 21.5167 75.3386 22.2801 C 75.8037 22.8797 76.394 23.3252 76.8655 23.9161 C 76.7716 24.7224 75.8131 24.0869 75.6658 23.6162 C 74.772 22.524 73.654 21.6812 72.612 20.7532 C 71.6406 19.9878 70.7693 19.0888 69.7763 18.3538 C 68.2527 17.1379 66.6414 16.0354 64.9228 15.1363 C 62.4586 13.7336 59.8124 12.6835 57.1519 11.7553 C 55.1109 11.0964 53.0591 10.5406 50.9352 10.2557 C 48.8247 9.8946 46.7127 9.5139 44.5821 9.3013 C 43.4005 9.1946 42.21 9.0192 41.0375 8.8378 C 39.8022 8.6053 38.5713 8.7122 37.3292 8.8106 C 35.6643 9.0606 33.9825 9.2167 32.3395 9.6013 C 30.7489 9.9659 29.1208 10.1721 27.5406 10.5829 C 25.8055 11.0206 24.1371 11.7682 22.5236 12.5461 C 19.9096 13.6986 17.3454 14.9318 14.8617 16.3634 C 14.0242 16.8128 13.2498 17.3719 12.4895 17.9449 C 10.3585 19.4882 8.3442 21.2037 6.3546 22.9346 C 5.811 23.3669 5.3232 23.9018 4.9367 24.4888 C 4.9016 24.6317 4.8253 24.7291 4.7186 24.816 C 4.7444 24.8042 4.7756 24.7992 4.8003 24.7888 C 7.4839 22.8183 10.2149 20.8839 12.9257 18.9538 C 13.9914 18.1332 15.1629 17.4932 16.3612 16.9088 C 19.1256 15.6569 21.9572 14.6036 24.7593 13.446 C 26.6449 12.715 28.6619 12.4402 30.6216 12.0008 C 32.6111 11.5558 34.611 11.1408 36.6202 10.8011 C 37.0602 10.7858 37.4886 10.7679 37.929 10.7739 C 40.0466 10.8023 42.1437 11.0871 44.2548 11.2375 C 45.7542 11.3264 47.267 11.5419 48.7538 11.7555 C 50.9686 12.0383 53.1442 12.4735 55.325 12.9552 C 57.2044 13.4013 59.0739 13.9427 60.86 14.7003 C 63.1282 15.674 65.4972 16.4724 67.5403 17.9177 C 68.9171 18.8423 70.2796 19.7755 71.603 20.7807 C 73.1679 21.8779 74.6138 23.1822 76.1838 24.2708 C 76.6092 24.3705 76.5785 24.7301 76.3474 24.8707 C 76.8623 25.3668 75.9442 25.7625 75.5839 25.3069 C 75.0295 24.888 74.3789 24.6206 73.7298 24.4071 C 72.1157 23.6531 70.5929 22.7288 69.0127 21.8986 C 67.8655 21.2635 66.7154 20.6127 65.5226 20.0718 C 64.3827 19.5655 63.2486 19.08 62.0598 18.7085 C 60.8005 18.2354 59.448 18.0792 58.1334 17.8632 C 56.3635 17.6423 54.6033 17.3119 52.8165 17.2906 C 50.6447 17.1868 48.4741 17.1012 46.2998 17.1543 C 45.3675 17.1445 44.4493 17.1292 43.5186 17.2088 C 42.3072 17.3076 41.0734 17.3195 39.8649 17.4542 C 38.1643 17.5997 36.4609 17.8232 34.7661 18.0268 C 31.8804 18.3896 28.9977 18.5555 26.1226 19.0084 C 24.9506 19.2271 23.7415 19.3693 22.578 19.6355 C 20.6522 20.0255 18.7955 20.6374 16.9611 21.3533 C 15.4863 22.1141 14.0231 22.9716 12.5167 23.6709 C 10.8603 24.4978 9.1435 25.1699 7.3906 25.7432 C 6.5419 26.0424 5.6531 26.1097 4.8276 26.4794 C 4.4078 26.6677 3.5678 26.9173 3.3824 26.3158 C 3.3924 25.9823 3.6059 25.8029 3.846 25.6614 C 3.9079 25.3465 4.2273 25.097 4.5276 24.9252 C 4.225 25.0422 3.8753 24.9751 3.846 24.5434 C 3.8865 23.9463 4.537 23.663 4.9094 23.2892 C 6.534 21.5267 8.2264 19.8314 10.0354 18.2722 C 11.5956 16.9387 13.2011 15.6533 14.8616 14.4549 C 16.863 13.124 18.9634 11.9523 21.0783 10.8284 C 22.4094 10.0733 23.8201 9.5114 25.2228 8.9198 C 26.638 8.3778 28.0561 7.8912 29.5037 7.4474 C 31.5768 6.7391 33.7328 6.3102 35.884 5.9477 C 36.6347 5.8593 37.3671 5.6888 38.1198 5.6478 Z M 55.1614 19.6354 C 55.8861 19.6451 56.594 19.6801 57.3155 19.7172 C 58.8144 19.8497 60.3316 19.9904 61.8144 20.2626 C 63.1314 20.4762 64.3269 21.0516 65.5499 21.5714 C 67.8502 22.6586 70.0699 23.9636 72.4483 24.8706 C 74.1062 25.4186 75.821 25.7361 77.5199 26.1248 C 77.5243 26.1703 77.5431 26.2157 77.5471 26.2612 C 76.4363 26.3194 75.3288 26.3608 74.2206 26.343 C 72.7506 26.1617 71.2152 26.2376 69.8034 25.7158 C 68.4085 25.2471 67.1214 24.5851 65.7953 23.9435 C 64.8187 23.5334 63.8687 22.9376 62.796 22.8529 C 62.0019 22.7188 61.1896 22.8568 60.3965 22.9347 C 59.0981 23.1091 57.7814 23.1171 56.4974 23.3982 C 55.0709 23.5725 53.6812 23.9322 52.2984 24.3253 C 51.5671 24.4922 50.8644 24.7094 50.1716 25.0069 C 49.3296 25.2667 48.4526 25.4577 47.6904 25.934 C 46.9684 26.5479 46.1027 26.971 45.3182 27.4882 C 44.7262 27.7771 44.167 28.1363 43.5186 28.2789 C 42.0742 28.4111 40.6323 28.5854 39.1832 28.6606 C 36.9546 28.7272 34.7333 28.8685 32.503 28.8242 C 30.4515 28.7248 28.4173 28.4987 26.368 28.3607 C 25.6938 28.3024 24.9481 28.3111 24.3503 28.6879 C 23.7833 29.0858 23.3447 29.7068 22.6598 29.9149 C 21.5916 30.1795 20.4744 30.0714 19.3878 30.0239 C 18.7203 30.0241 18.0796 29.8924 17.4246 29.7785 C 15.6614 29.3658 13.913 28.8179 12.135 28.4697 C 9.9928 28.0103 7.8452 27.8075 5.6728 27.57 C 5.266 27.4489 4.7144 27.5547 4.2822 27.4882 C 4.0229 27.4483 3.8221 27.3531 3.6551 27.1064 C 3.7334 26.4941 4.6053 26.7598 5.0457 26.7247 C 6.0246 26.6347 6.9841 26.445 7.9632 26.343 C 9.8896 26.1129 11.7846 25.6308 13.5801 24.8706 C 14.8861 24.2432 16.1876 23.6114 17.561 23.1528 C 18.5875 22.7125 19.6939 22.5508 20.7784 22.3348 C 22.179 21.9958 23.6279 21.8135 25.0592 21.6804 C 28.6578 21.4326 32.2568 21.415 35.8567 21.1896 C 38.6938 20.9592 41.5585 20.6847 44.3911 20.3989 C 47.2483 19.9799 50.0971 19.7697 52.9801 19.6627 C 53.7021 19.6415 54.4367 19.6255 55.1614 19.6355 Z M 4.2823 27.4882 C 4.8773 27.6264 5.476 27.8545 6.0819 27.9517 C 7.6157 28.1944 9.1031 28.6093 10.5536 29.1787 C 12.4881 29.8781 14.3583 30.7899 16.2795 31.5236 C 18.8146 32.4009 21.377 33.165 23.9687 33.8413 C 25.2447 34.1115 26.5426 34.277 27.8405 34.3866 C 30.1675 34.649 32.4976 34.7947 34.8207 35.0955 C 36.49 35.3898 38.213 35.42 39.8922 35.2046 C 41.4685 35.0769 43.039 34.9363 44.6093 34.7411 C 45.8951 34.4776 47.2103 34.6663 48.5084 34.6593 C 49.3688 34.6607 50.3066 34.6532 51.0169 34.0867 C 51.6849 33.6196 52.0263 32.8382 52.4348 32.1508 C 52.7637 31.5807 53.2639 31.1187 53.9072 30.9783 C 55.0792 30.7326 56.2714 30.6068 57.4246 30.2694 C 58.1677 30.1912 58.6742 29.6511 59.1423 29.0969 C 59.7106 28.5285 60.306 27.9626 60.8329 27.3519 C 61.5691 26.4183 62.5027 25.6714 63.5868 25.2251 C 63.9975 25.1555 64.4408 25.2232 64.7865 25.4705 C 65.9263 26.004 66.6749 27.1619 67.8403 27.6518 C 68.4417 27.9515 69.1033 27.7841 69.749 27.7881 C 71.5201 27.5628 73.3334 27.302 75.0932 26.9974 C 75.6931 26.9796 76.3894 26.3456 76.8928 26.9156 C 76.9191 27.0051 76.929 27.0892 76.92 27.161 C 77.1391 27.038 77.3563 26.9055 77.5744 26.7793 C 77.5764 26.8065 77.5724 26.8339 77.5744 26.8611 C 77.3455 26.9933 77.119 27.1352 76.8927 27.2701 C 76.7675 27.5819 76.3128 27.7027 75.9384 27.8154 C 75.4086 28.1276 74.8898 28.4361 74.3569 28.7425 C 74.103 28.9158 73.8501 29.0936 73.5935 29.2605 C 72.6245 29.95 71.6317 30.6015 70.6214 31.2237 C 69.9431 31.8084 69.3421 32.4905 68.6855 33.1051 C 67.6411 34.0712 66.5984 35.0379 65.4408 35.859 C 64.8763 36.3585 64.2072 36.7178 63.5594 37.086 C 62.5811 37.6492 61.5203 38.0103 60.4783 38.4221 C 58.69 39.0328 56.9122 39.6934 55.0523 40.0308 C 53.4976 40.3025 51.9334 40.5175 50.3625 40.6579 C 48.8668 40.8487 47.3609 40.8714 45.8635 41.0396 C 44.2957 41.1487 42.7161 41.1978 41.1464 41.285 C 39.3052 41.3481 37.4811 41.4543 35.6386 41.3941 C 33.4369 41.117 31.2606 40.6901 29.0947 40.1944 C 26.8533 39.6053 24.5781 39.0744 22.3599 38.3948 C 20.5621 37.7413 18.785 37.0228 17.152 35.9953 C 13.5908 34.051 10.1145 31.9696 6.6271 29.8877 C 5.8826 29.3895 5.0762 28.9591 4.2822 28.5516 C 3.6666 28.6335 3.2381 27.5977 3.955 27.4064 C 4.0671 27.4251 4.1711 27.4624 4.2822 27.4882 Z M 77.5471 29.3151 C 76.5779 31.033 75.5941 32.7362 74.5205 34.3867 C 73.6544 35.8509 72.6094 37.1851 71.5212 38.4767 C 70.7598 39.4577 69.9086 40.3512 69.0399 41.2306 C 66.4866 43.7534 63.529 45.8514 60.3965 47.5291 C 58.8921 48.2312 57.4188 49.0034 55.8703 49.6013 C 53.4231 50.5072 51.0015 51.4414 48.4811 52.1099 C 46.3359 52.5741 44.1463 52.8433 41.9917 53.2551 C 41.8922 53.2689 41.7914 53.2692 41.6917 53.2823 C 41.2547 53.2926 40.8237 53.3094 40.3829 53.3094 C 37.572 53.3094 34.8359 53.0857 32.203 52.6823 C 29.8983 52.0034 27.5758 51.3332 25.3591 50.3919 C 23.6709 49.5574 22.0486 48.5904 20.4512 47.5835 C 19.0028 46.7103 17.6485 45.7027 16.3067 44.666 C 14.6214 43.4213 13.1859 41.8639 11.6987 40.3852 C 10.2378 38.9802 8.8917 37.4623 7.636 35.8589 C 6.1054 34.0264 4.7803 32.0329 3.5187 29.9967 C 3.4384 29.8357 3.3204 29.6875 3.2188 29.5331 C 3.2148 29.5267 3.2228 29.5119 3.2188 29.5059 C 3.1918 29.2157 3.177 28.9263 3.1643 28.6334 L 5.2911 30.8965 C 8.305 34.1714 11.5769 37.225 14.9161 40.1398 C 16.8695 41.5751 18.9455 42.8053 21.0511 43.9844 C 22.3987 44.6953 23.6903 45.4991 25.032 46.2203 C 26.0072 46.6711 27.0647 46.9634 28.0858 47.2836 C 30.0633 47.8153 32.0191 48.3722 34.0299 48.756 C 35.465 49.0015 36.9297 49.3293 38.3925 49.2741 C 40.2795 49.2288 42.1061 48.8622 43.9821 48.6742 C 45.7849 48.4913 47.587 48.1849 49.3536 47.7744 C 52.4112 47.2236 55.3221 46.0426 58.2425 44.9933 C 59.9035 44.4498 61.4289 43.5732 62.9596 42.7302 C 64.5938 41.8419 66.1189 40.7771 67.5676 39.5945 C 68.5583 38.8568 69.4231 37.9637 70.2942 37.086 C 71.4817 35.7142 72.6568 34.3189 73.8389 32.9415 C 75.1034 31.4414 76.3488 29.922 77.6016 28.4153 C 77.5923 28.7173 77.5717 29.0159 77.5471 29.3151 Z " id="path6744" fill="#356804" fill-rule="nonzero" stroke="none" stroke-width="1"/><path d="M 18.2598 13.7633 C 14.8759 15.6847 13.3074 18.6276 12.0797 17.1793 C 10.8518 15.7309 12.6005 13.0007 15.9845 11.0793 C 19.3675 9.1584 23.1046 8.7738 24.3324 10.2221 C 25.5603 11.6705 21.6419 11.843 18.2598 13.7633 Z " id="Shine-2" fill="#bfef90" fill-rule="evenodd" stroke="none" stroke-width="1"/></g></g></svg>